<?xml version="1.0" standalone="no"?>
<!DOCTYPE svg PUBLIC "-//W3C//DTD SVG 20010904//EN"
 "http://www.w3.org/TR/2001/REC-SVG-20010904/DTD/svg10.dtd">
<svg version="1.0" xmlns="http://www.w3.org/2000/svg"
 width="418.000000pt" height="418.000000pt" viewBox="0 0 418.000000 418.000000"
 preserveAspectRatio="xMidYMid meet">
<metadata>
Created by potrace 1.14, written by Peter Selinger 2001-2017
</metadata>
<g transform="translate(0.000000,418.000000) scale(0.100000,-0.100000)"
fill="#000000" stroke="none">
<path d="M0 3530 l0 -650 38 0 c27 0 62 15 134 59 88 53 119 68 170 85 19 6
58 75 58 104 0 10 7 27 15 38 14 18 15 17 9 -10 -10 -40 13 -25 33 23 12 27
17 32 22 20 5 -14 15 -11 66 23 94 61 165 88 236 88 42 0 44 -2 45 -29 1 -23
-5 -30 -33 -40 -18 -7 -33 -19 -33 -26 0 -14 14 -14 88 1 12 2 22 0 22 -5 0
-6 7 -8 15 -5 21 8 21 -59 0 -76 -10 -9 -15 -9 -15 -1 0 6 -5 11 -11 11 -5 0
-8 -4 -5 -9 3 -5 -5 -20 -19 -32 -13 -13 -25 -31 -25 -40 0 -9 -9 -19 -20 -22
-11 -3 -20 -13 -20 -22 0 -12 -4 -15 -12 -9 -7 5 -20 9 -28 8 -8 -1 -20 -2
-26 -3 -6 0 -24 -25 -40 -55 -26 -50 -29 -53 -41 -36 -13 19 -14 19 -33 0 -11
-11 -26 -20 -33 -20 -11 0 -41 -36 -42 -52 0 -12 -15 -21 -15 -10 0 14 -19 15
-39 3 -12 -8 -12 -12 -2 -25 8 -9 9 -16 3 -16 -5 0 -13 -11 -16 -25 -4 -16
-13 -25 -26 -25 -11 0 -20 -4 -20 -8 0 -4 -10 -8 -21 -9 -12 -1 -38 -13 -58
-26 -20 -13 -52 -30 -71 -38 -19 -7 -40 -20 -46 -28 -22 -29 -37 -1 -30 58 6
53 4 58 -29 96 -26 31 -37 37 -43 26 -8 -10 -12 -9 -23 5 -8 11 -29 24 -46 31
l-33 11 0 -961 c1 -911 2 -961 18 -942 27 32 62 59 62 48 0 -6 -18 -31 -40
-56 l-40 -45 0 -456 0 -456 539 0 539 1 6 22 c3 12 6 33 6 47 0 18 11 32 37
49 l36 23 -21 -37 c-21 -35 -22 -62 -1 -50 5 4 9 2 9 -4 0 -5 -4 -13 -10 -16
-17 -11 -11 -35 9 -35 22 0 31 19 31 66 0 20 4 33 9 29 6 -3 7 9 4 30 -4 24
-2 35 6 35 7 0 9 5 6 10 -3 6 -2 10 4 10 17 0 22 -18 6 -24 -8 -3 -15 -13 -15
-21 0 -9 5 -13 10 -10 6 3 10 -3 10 -14 0 -36 19 -23 22 16 2 20 9 39 17 41
11 4 12 -1 6 -19 -12 -38 -8 -72 9 -85 9 -6 16 -19 16 -28 0 -23 37 -20 52 4
19 30 31 24 23 -10 -6 -29 -6 -30 34 -30 34 0 39 3 35 18 -5 16 -5 16 9 0 18
-23 27 -23 27 0 0 9 5 24 11 32 8 11 9 7 5 -18 l-6 -33 144 2 144 1 37 75 c20
41 39 73 41 70 3 -3 -11 -37 -30 -76 l-36 -71 380 0 380 0 -11 26 c-14 38 -4
41 11 4 l12 -30 287 0 c234 1 281 3 257 13 -28 12 -28 13 -10 34 l19 22 53
-24 c28 -14 52 -29 52 -35 0 -5 5 -10 11 -10 6 0 9 5 7 12 -2 6 7 34 21 62 21
41 33 53 64 63 31 11 44 10 73 -2 18 -7 34 -15 34 -17 0 -2 -21 -4 -46 -6 -25
-1 -54 -7 -65 -12 -21 -12 -49 -60 -49 -85 0 -30 33 -11 42 23 9 34 13 37 65
46 40 7 63 -14 63 -55 0 -26 3 -29 33 -29 l32 0 -26 23 c-15 12 -29 30 -33 40
-5 15 -2 17 16 11 17 -5 20 -3 15 10 -4 10 -3 15 3 11 6 -3 10 -12 10 -18 0
-7 27 -27 59 -45 l60 -32 290 0 291 0 0 259 0 259 -25 6 c-14 4 -35 4 -47 1
-13 -3 -32 1 -43 9 -19 14 -19 14 5 11 14 -2 44 -6 68 -9 l42 -4 0 48 c0 29
-5 51 -12 54 -10 5 -10 7 0 12 27 13 9 23 -38 22 -27 -1 -53 2 -57 5 -11 12
14 30 29 21 7 -5 23 -10 34 -11 17 -3 22 2 22 23 0 22 -2 24 -10 11 -5 -10
-14 -17 -19 -17 -6 0 -1 14 11 30 22 30 16 40 -10 17 -8 -6 -6 -2 4 11 11 12
25 22 33 22 10 0 13 24 13 105 0 94 -3 109 -24 143 -13 20 -27 53 -30 72 l-6
34 30 -29 30 -29 0 737 c0 623 -2 737 -14 737 -23 0 -27 29 -5 41 17 9 18 13
7 26 -10 13 -10 17 -1 20 10 4 13 175 13 774 l0 769 -2090 0 -2090 0 0 -650z
m1726 245 c26 -22 27 -25 9 -25 -18 -1 -19 -1 -2 -11 18 -11 24 -59 6 -59 -6
0 -8 9 -4 20 4 13 2 20 -7 20 -23 0 -39 -16 -33 -32 7 -18 -35 -33 -66 -23
-16 5 -19 1 -19 -25 0 -17 11 -48 24 -69 23 -36 24 -40 9 -62 l-17 -24 22 19
c18 15 25 17 35 7 12 -12 2 -24 -27 -34 -5 -2 -10 -33 -12 -70 l-3 -68 51 46
c27 25 55 45 61 45 7 0 -10 -20 -36 -43 -33 -31 -47 -52 -47 -70 0 -33 -16
-44 -25 -17 -3 11 -10 20 -15 20 -5 0 -6 7 -3 17 4 11 3 14 -5 9 -12 -7 -17
11 -13 42 2 8 -5 29 -14 48 -9 19 -13 43 -10 53 3 11 1 22 -5 26 -16 10 -12
74 12 151 14 48 26 70 34 67 7 -2 16 6 20 19 6 21 31 47 45 48 3 0 19 -11 35
-25z m353 -48 c5 -28 5 -44 -1 -41 -15 10 -27 50 -21 73 7 29 11 23 22 -32z
m-1329 -17 c0 -27 -4 -50 -10 -50 -5 0 -10 23 -10 50 0 28 5 50 10 50 6 0 10
-22 10 -50z m1187 2 c-10 -10 -17 -26 -17 -35 0 -9 -4 -19 -10 -22 -6 -4 -10
6 -10 24 0 18 7 34 18 40 27 16 37 13 19 -7z m-1177 -94 c0 -7 -9 -24 -20 -38
l-20 -25 0 31 c0 17 3 34 7 37 11 12 33 8 33 -5z m1380 -28 c0 -29 -21 -70
-37 -70 -9 0 -11 5 -4 18 6 9 12 29 16 45 6 31 25 37 25 7z m-1334 -26 c-4
-14 -9 -24 -12 -21 -3 2 -2 17 2 31 3 15 9 25 11 22 3 -3 2 -17 -1 -32z m738
0 c4 -9 1 -23 -6 -31 -9 -11 -9 -16 2 -23 20 -12 23 -104 5 -158 -24 -70 -54
-110 -137 -182 -33 -27 -40 -30 -52 -17 -12 12 -12 19 3 53 10 21 25 45 34 53
24 19 21 -1 -3 -27 -15 -16 -18 -27 -11 -39 8 -14 13 -10 37 28 16 24 41 56
57 71 34 34 40 96 8 78 -11 -5 -23 -15 -26 -20 -10 -16 -35 -12 -35 6 0 8 -4
13 -9 9 -5 -3 -12 -1 -15 4 -3 5 4 11 17 15 20 5 21 7 6 22 -13 12 -21 14 -37
5 -11 -6 -34 -11 -51 -11 -25 0 -32 -6 -46 -38 -11 -24 -37 -53 -71 -77 -30
-22 -54 -45 -54 -51 0 -6 -9 -14 -20 -17 -11 -3 -20 -1 -20 3 0 14 -61 30
-116 30 -31 0 -54 4 -54 11 0 5 6 7 13 3 8 -5 8 -2 -2 9 -11 15 -11 17 2 17 8
0 36 25 62 55 30 35 68 66 104 84 52 27 206 78 344 116 32 9 55 20 52 25 -4 6
-2 10 3 10 6 0 13 -7 16 -16z m-990 -58 c-3 -21 -8 -35 -11 -32 -2 2 -1 20 3
40 3 21 8 35 11 32 2 -2 1 -20 -3 -40z m1294 27 c6 -11 6 -28 1 -41 -7 -20
-11 -21 -29 -10 -19 12 -27 48 -13 61 12 13 32 7 41 -10z m435 -30 c-7 -2 -21
-2 -30 0 -10 3 -4 5 12 5 17 0 24 -2 18 -5z m87 -13 l25 -8 -25 0 c-14 0 -36
4 -50 8 l-25 8 25 0 c14 0 36 -4 50 -8z m-1630 -20 c0 -13 -5 -18 -15 -14 -16
7 -19 17 -8 27 12 13 23 7 23 -13z m1448 -16 c19 11 53 -17 46 -38 -4 -10 0
-22 7 -27 7 -4 10 -12 5 -16 -5 -4 -11 -2 -13 5 -3 6 -11 12 -20 12 -20 0 -52
40 -53 65 0 15 2 17 9 6 5 -7 14 -11 19 -7z m354 -51 c34 -32 35 -43 6 -43
-22 -1 -23 -1 -4 -15 26 -19 16 -19 -34 1 -38 16 -51 42 -17 36 11 -2 15 4 13
23 -4 32 1 31 36 -2z m-110 -30 c16 4 17 3 7 -9 -16 -20 -33 -18 -55 7 -19 22
-19 22 5 10 12 -7 32 -10 43 -8z m416 -8 l27 -14 -30 -1 c-19 0 -25 -3 -17 -8
21 -14 3 -45 -22 -38 -11 3 -29 6 -39 6 -17 0 -87 62 -87 76 0 12 141 -6 168
-21z m-2340 -74 c-6 -28 -15 -51 -20 -51 -10 0 0 66 14 93 16 31 19 13 6 -42z
m1326 18 c-7 -12 -64 -12 -64 0 0 5 8 11 18 13 24 6 53 -3 46 -13z m693 -5 c2
-6 -5 -14 -15 -16 -22 -6 -66 15 -55 25 11 11 66 4 70 -9z m-2073 -31 c-9 -51
-24 -66 -18 -18 2 21 7 42 10 46 11 19 15 7 8 -28z m1263 15 c-3 -8 -6 -5 -6
6 -1 11 2 17 5 13 3 -3 4 -12 1 -19z m-820 6 c-3 -3 -12 -4 -19 -1 -8 3 -5 6
6 6 11 1 17 -2 13 -5z m40 0 c-3 -3 -12 -4 -19 -1 -8 3 -5 6 6 6 11 1 17 -2
13 -5z m2146 -47 c51 -35 73 -58 106 -115 45 -77 41 -122 -7 -67 -25 28 -52
33 -52 9 0 -9 -6 -14 -13 -11 -8 3 -20 1 -28 -4 -11 -7 -9 -9 8 -9 15 0 28
-11 38 -31 16 -30 12 -57 -4 -31 -4 7 -15 10 -25 6 -16 -6 -17 -4 -6 15 13 25
4 44 -10 21 -7 -12 -12 -11 -27 6 -10 11 -25 18 -34 17 -9 -2 -20 7 -27 22 -6
14 -16 25 -22 25 -6 0 -8 -4 -5 -10 3 -5 0 -10 -7 -10 -12 0 -52 79 -44 87 8
8 71 -14 71 -24 0 -6 3 -15 8 -19 4 -4 7 -2 7 6 0 10 3 10 15 0 24 -20 17 5
-10 34 -13 14 -20 26 -14 26 16 0 52 -24 71 -46 11 -14 32 -23 58 -26 37 -3
39 -2 26 16 -7 11 -19 22 -27 24 -11 3 -12 2 -1 -6 11 -8 11 -10 -1 -15 -11
-4 -18 3 -22 23 -3 15 -13 31 -22 34 -13 5 -13 9 -2 23 12 14 12 16 0 8 -9 -5
-12 -4 -7 3 3 6 -2 13 -13 17 -10 3 -27 15 -37 27 -19 21 -19 21 4 9 12 -7 37
-22 55 -34z m-98 -7 c3 -5 13 -6 23 -3 15 6 15 5 2 -11 -8 -11 -16 -14 -18 -7
-2 6 -10 11 -17 11 -8 0 -17 5 -20 10 -3 6 1 10 9 10 8 0 17 -4 21 -10z
m-1968 -6 c-3 -3 -12 -4 -19 -1 -8 3 -5 6 6 6 11 1 17 -2 13 -5z m2028 -14
c-3 -5 -11 -10 -16 -10 -6 0 -7 5 -4 10 3 6 11 10 16 10 6 0 7 -4 4 -10z
m-1455 -47 c0 -28 -57 -106 -71 -97 -16 9 -10 30 24 81 34 53 47 58 47 16z
m60 -106 c0 -24 -26 -51 -44 -44 -16 6 -16 8 0 32 17 27 44 34 44 12z m1645
-15 c-3 -3 -11 0 -18 7 -9 10 -8 11 6 5 10 -3 15 -9 12 -12z m-19 -93 c0 -19
-3 -39 -7 -45 -5 -6 3 -19 21 -32 43 -32 81 -27 48 6 -9 9 -6 12 15 10 21 -2
26 -7 24 -23 -1 -11 -6 -26 -11 -33 -4 -7 -3 -19 3 -26 18 -22 -11 -37 -59
-31 -27 3 -48 13 -57 25 -8 11 -23 20 -34 20 -10 0 -19 5 -19 10 0 6 6 10 13
10 8 0 8 3 -2 9 -12 8 -12 13 -3 24 7 8 10 22 6 31 -4 12 -2 15 9 10 20 -7 40
30 32 58 -5 15 -3 19 6 16 8 -3 14 -20 15 -39z m108 25 c26 -10 18 -21 -14
-22 -29 -1 -37 7 -23 21 8 9 17 9 37 1z m331 -24 c10 -11 15 -20 11 -20 -4 0
-16 9 -28 20 -12 11 -17 20 -11 20 5 0 18 -9 28 -20z m-395 -55 c0 -8 -7 -15
-15 -15 -9 0 -12 6 -9 15 4 8 10 15 15 15 5 0 9 -7 9 -15z m578 -29 c42 -27
63 -49 83 -88 8 -14 31 -44 51 -66 28 -31 34 -42 23 -46 -9 -3 -15 0 -15 9 0
8 -8 20 -18 27 -10 7 -28 30 -41 51 -13 21 -35 46 -50 55 -14 9 -32 25 -39 34
-7 10 -19 18 -26 18 -7 0 -21 7 -32 15 -18 14 -18 14 4 15 12 0 39 -11 60 -24z
m-1902 -38 c-4 -45 -5 -48 -14 -48 -17 0 -32 40 -22 60 17 32 39 25 36 -12z
m-983 -49 c4 -16 -3 -30 -24 -50 -17 -16 -34 -28 -37 -27 -15 3 -67 -16 -80
-29 -15 -14 -42 -18 -42 -5 0 19 123 112 148 112 7 0 12 5 12 10 0 19 18 10
23 -11z m1377 -19 c41 -22 71 -40 65 -40 -17 0 -165 65 -165 73 0 14 26 6 100
-33z m1550 -35 c-7 -9 -15 -13 -19 -10 -3 3 1 10 9 15 21 14 24 12 10 -5z
m-1312 -93 c2 -7 -32 5 -77 27 -76 39 -89 50 -75 64 8 8 146 -75 152 -91z
m1392 58 c0 -5 -5 -10 -11 -10 -5 0 -7 5 -4 10 3 6 8 10 11 10 2 0 4 -4 4 -10z
m-5 -51 c11 -16 1 -19 -13 -3 -7 8 -8 14 -3 14 5 0 13 -5 16 -11z m-3771 -44
c-7 -17 -30 -20 -39 -6 -4 8 9 15 37 20 4 0 5 -6 2 -14z m2050 -164 c24 -67
12 -60 -18 11 -16 35 -30 88 -32 118 l-4 55 19 -70 c11 -38 27 -90 35 -114z
m-1084 118 c13 -9 12 -10 -2 -5 -11 3 -15 1 -12 -8 8 -21 -11 -28 -40 -15 -28
13 -24 34 5 26 11 -3 19 -1 19 4 0 12 12 11 30 -2z m1336 -202 c5 1 32 3 59 4
28 2 53 7 56 11 3 5 25 -20 49 -54 24 -35 71 -97 104 -138 33 -41 51 -67 40
-57 -11 9 -24 14 -27 10 -4 -3 -7 0 -7 7 0 8 -8 3 -20 -10 -16 -19 -18 -26 -8
-39 10 -13 10 -14 -2 -3 -20 17 -30 15 -23 -5 6 -16 5 -16 -10 -4 -9 7 -17 9
-17 4 0 -17 88 -95 99 -88 6 3 9 11 6 16 -4 5 -2 9 2 9 5 0 17 14 26 30 10 17
22 30 26 30 4 0 26 -16 50 -36 33 -29 39 -39 30 -50 -6 -8 -9 -14 -5 -14 3 0
0 -16 -8 -35 -8 -19 -12 -35 -8 -35 4 0 0 -4 -8 -10 -12 -8 -12 -10 3 -16 9
-3 17 -10 17 -16 0 -5 -21 6 -47 23 -70 47 -249 233 -317 328 -61 85 -136 224
-135 251 0 8 15 -14 33 -50 18 -36 37 -64 42 -63z m728 -48 c32 -54 2 -27 -69
61 l-68 85 59 -58 c33 -31 68 -71 78 -88z m-254 31 c33 0 40 -15 12 -25 -25
-7 -48 -55 -27 -55 8 0 15 5 15 10 0 6 5 10 10 10 6 0 10 -6 10 -13 0 -11 -89
-41 -97 -33 -2 1 4 29 12 61 15 54 14 60 -2 80 -10 11 -6 8 9 -7 18 -18 38
-28 58 -28z m-696 24 c3 -8 2 -12 -4 -9 -6 3 -10 10 -10 16 0 14 7 11 14 -7z
m803 -30 c22 -20 23 -23 6 -15 -12 6 -33 11 -47 11 -25 0 -33 10 -19 23 12 13
32 7 60 -19z m-749 -62 c22 -37 65 -103 96 -147 41 -57 46 -69 20 -40 -20 22
-53 65 -74 95 -37 55 -94 160 -86 160 2 0 22 -30 44 -68z m-1224 35 c7 -7 18
-22 25 -35 10 -19 9 -22 -7 -22 -10 0 -24 11 -30 25 -20 43 -14 58 12 32z
m1081 -39 c40 -25 101 -127 65 -108 -23 12 -32 25 -45 65 -25 76 -187 69 -281
-12 -34 -28 -49 -64 -33 -74 9 -6 10 -9 2 -9 -6 0 -11 -12 -10 -27 1 -16 -2
-30 -8 -33 -6 -3 -11 13 -11 37 -5 137 198 239 321 161z m-62 -10 c32 -15 35
-28 7 -28 -11 0 -20 -4 -20 -10 0 -5 -8 -10 -18 -10 -15 0 -18 6 -14 30 5 34
7 35 45 18z m-903 -2 c0 -2 -7 -7 -16 -10 -8 -3 -12 -2 -9 4 6 10 25 14 25 6z
m965 -26 c3 -5 -1 -10 -9 -10 -9 0 -16 5 -16 10 0 6 4 10 9 10 6 0 13 -4 16
-10z m-1045 -16 c0 -13 3 -14 15 -4 12 10 13 7 4 -22 -6 -18 -14 -60 -18 -93
-4 -33 -10 -53 -13 -45 -24 69 -29 97 -23 136 4 29 11 44 21 44 8 0 14 -7 14
-16z m107 -131 c28 -29 37 -33 85 -33 l55 0 9 48 c6 30 14 47 24 48 8 0 23 4
33 8 23 11 28 6 34 -41 4 -30 -1 -52 -21 -91 -14 -28 -23 -58 -20 -66 8 -22
-67 -39 -141 -32 -60 6 -60 6 -26 -9 37 -17 97 -20 105 -6 3 5 21 12 40 15 47
9 59 28 72 110 l11 71 3 -85 c1 -47 4 -77 7 -67 2 9 9 17 14 17 12 0 12 -57
-1 -62 -5 -1 -12 -21 -15 -43 -9 -71 -15 -90 -36 -103 -19 -12 -20 -11 -14 10
4 13 11 27 16 33 5 5 9 15 9 23 0 7 -11 1 -25 -15 l-25 -28 15 37 c8 21 15 46
15 56 0 11 7 25 15 32 8 7 12 17 9 22 -3 5 -13 0 -21 -11 -8 -12 -22 -21 -31
-21 -15 0 -15 -2 -2 -10 11 -8 5 -9 -23 -7 -31 4 -35 2 -25 -10 9 -11 13 -11
19 -1 7 11 9 11 9 0 0 -22 -20 -53 -31 -47 -5 4 -9 -2 -9 -12 0 -14 -2 -15 -9
-5 -4 8 -12 14 -17 15 -5 1 -9 13 -9 27 0 18 -6 26 -22 28 -18 3 -21 0 -16
-13 5 -14 2 -16 -13 -11 -15 5 -22 -1 -32 -27 l-13 -32 -24 30 c-27 33 -56 87
-50 93 2 2 14 -3 27 -12 12 -9 34 -16 48 -15 23 1 22 2 -6 8 -17 4 -36 11 -43
15 -16 10 -4 26 17 20 9 -2 7 1 -6 8 -17 8 -26 9 -30 1 -4 -6 -8 39 -9 99 -1
61 0 115 3 120 4 5 14 -3 24 -19 9 -15 31 -43 47 -60z m-866 44 c-10 -9 -11
-8 -5 6 3 10 9 15 12 12 3 -3 0 -11 -7 -18z m1136 -9 c-3 -7 -5 -2 -5 12 0 14
2 19 5 13 2 -7 2 -19 0 -25z m-719 0 c-2 -14 2 -22 10 -20 6 1 12 -2 12 -8 0
-5 -11 -10 -25 -10 -17 0 -23 4 -20 15 3 8 7 22 10 30 7 23 17 18 13 -7z
m1450 0 c7 -7 12 -19 12 -28 0 -8 9 -23 20 -33 11 -9 20 -27 20 -39 0 -20 -5
-17 -47 22 -26 25 -41 37 -34 28 11 -15 11 -18 0 -19 -8 0 -29 -2 -47 -4 -21
-2 -31 1 -29 9 3 6 9 10 15 9 5 -1 9 5 8 15 -1 13 8 17 41 17 24 0 43 1 43 2
0 1 -7 9 -16 17 -8 9 -12 16 -7 16 5 0 14 -5 21 -12z m-208 -23 c-18 -22 -5
-31 15 -11 18 18 21 18 50 7 18 -7 17 -9 -12 -24 -35 -18 -69 -22 -77 -9 -5 9
20 52 31 52 3 0 0 -7 -7 -15z m-1794 -22 c-10 -10 -19 5 -10 18 6 11 8 11 12
0 2 -7 1 -15 -2 -18z m1639 -113 c4 -57 3 -71 -6 -57 -6 10 -8 28 -5 40 2 12
-2 31 -10 41 -8 11 -14 33 -14 50 0 27 2 28 15 16 8 -9 16 -44 20 -90z m256
40 c5 0 9 5 9 10 0 6 15 10 34 10 19 0 36 5 38 11 2 5 20 -3 40 -18 36 -27 37
-30 34 -86 -2 -31 -6 -60 -10 -64 -7 -7 -104 -5 -154 4 -23 4 -36 13 -43 30
-5 15 -15 23 -23 20 -24 -10 -39 8 -27 32 9 16 9 21 0 21 -19 0 23 41 56 54
27 11 30 11 33 -6 2 -10 8 -18 13 -18z m-1461 26 c0 -3 -4 -8 -10 -11 -5 -3
-10 -1 -10 4 0 6 5 11 10 11 6 0 10 -2 10 -4z m81 -37 l-10 -24 0 26 c-1 14 2
29 6 33 12 12 14 -9 4 -35z m79 -4 c0 -5 -5 -3 -10 5 -5 8 -10 20 -10 25 0 6
5 3 10 -5 5 -8 10 -19 10 -25z m-294 -7 c-18 -10 -39 -2 -31 12 3 4 15 6 26 3
19 -5 19 -7 5 -15z m-338 -10 c-2 -6 -10 -14 -16 -16 -7 -2 -10 2 -6 12 7 18
28 22 22 4z m130 -2 c-7 -8 -15 -12 -17 -11 -5 6 10 25 20 25 5 0 4 -6 -3 -14z
m306 -43 c6 -18 4 -20 -13 -16 -11 3 -26 13 -33 22 -12 15 -11 15 6 1 18 -14
19 -13 13 3 -9 23 3 45 13 26 4 -8 11 -24 14 -36z m203 0 c-3 -10 -5 -4 -5 12
0 17 2 24 5 18 2 -7 2 -21 0 -30z m-537 13 c0 -2 -7 -6 -15 -10 -8 -3 -15 -1
-15 4 0 6 7 10 15 10 8 0 15 -2 15 -4z m2770 -85 c0 -67 0 -68 35 -86 49 -27
37 -29 -19 -4 -48 21 -48 21 -42 62 3 23 5 57 5 75 1 19 5 31 11 27 6 -3 10
-37 10 -74z m-2045 20 c-3 -11 -12 -22 -21 -25 -11 -4 -13 0 -8 22 12 55 14
59 25 39 6 -9 8 -26 4 -36z m-49 -13 c-8 -59 -20 -80 -29 -49 -3 12 0 21 5 21
6 0 5 6 -2 15 -10 12 -10 21 -2 40 21 45 35 30 28 -27z m-331 22 c-3 -6 1 -17
9 -26 9 -8 16 -20 16 -26 0 -6 -9 1 -20 15 -22 28 -26 47 -9 47 5 0 7 -5 4
-10z m-368 -32 c-1 -34 5 -46 23 -51 11 -3 20 -12 20 -21 0 -9 5 -16 10 -16 6
0 10 -16 10 -36 0 -31 -3 -36 -19 -31 -15 4 -20 -2 -24 -32 -2 -20 -14 -52
-26 -71 l-21 -35 3 96 c1 54 5 95 10 92 11 -7 8 12 -4 24 -8 8 -8 13 0 17 6 4
11 12 11 18 0 6 -6 6 -15 -2 -9 -7 -13 -21 -10 -30 3 -10 -2 -23 -11 -31 -16
-13 -16 -12 -6 8 9 16 9 24 1 29 -8 4 -7 9 2 15 8 4 14 14 15 21 0 7 2 21 2
31 2 19 30 24 29 5z m3428 -18 c3 -5 1 -10 -4 -10 -6 0 -11 5 -11 10 0 6 2 10
4 10 3 0 8 -4 11 -10z m-3349 -37 c-11 -11 -19 6 -11 24 8 17 8 17 12 0 3 -10
2 -21 -1 -24z m668 22 c4 -10 -1 -15 -14 -15 -11 0 -20 7 -20 15 0 8 6 15 14
15 8 0 16 -7 20 -15z m2796 -11 c0 -8 -4 -12 -10 -9 -5 3 -10 10 -10 16 0 5 5
9 10 9 6 0 10 -7 10 -16z m-1290 -20 c-25 -14 -53 -33 -62 -41 -10 -9 -18 -13
-18 -10 0 15 37 50 65 63 52 23 62 15 15 -12z m-1593 -6 c-3 -8 -6 -5 -6 6 -1
11 2 17 5 13 3 -3 4 -12 1 -19z m-330 -20 c18 -39 14 -87 -13 -167 -14 -42
-30 -84 -35 -93 -7 -12 -6 -18 1 -18 6 0 8 -5 5 -10 -4 -6 -10 -8 -15 -5 -12
7 -67 -41 -73 -65 -3 -11 -1 -23 4 -26 5 -3 9 -11 9 -17 -1 -7 -9 -2 -19 11
-11 12 -25 22 -33 22 -7 1 -24 7 -37 14 -18 10 -20 14 -8 19 8 3 25 3 36 0 31
-8 26 4 -11 28 l-33 20 48 -3 c50 -3 61 6 25 22 -20 9 -19 10 10 7 26 -3 32 0
30 12 -2 10 -14 16 -33 16 -39 0 -49 19 -11 22 37 3 44 10 21 26 -12 10 -15
18 -9 30 8 13 12 13 27 2 10 -7 18 -16 18 -19 -3 -20 1 -26 13 -26 7 0 19 6
25 14 9 11 7 12 -12 9 -18 -4 -24 0 -24 14 0 21 20 43 39 43 10 0 9 -3 -2 -11
-11 -8 -12 -10 -1 -7 8 2 15 16 17 31 2 19 -3 28 -17 32 -22 7 -42 -5 -21 -12
8 -3 0 -12 -20 -22 -18 -10 -37 -14 -41 -11 -9 8 2 42 12 36 3 -2 23 8 43 23
28 21 34 31 26 39 -9 9 -8 12 5 12 10 0 20 7 23 15 9 21 19 19 31 -7z m830
-20 c-3 -47 -14 -59 -45 -52 -21 4 -24 3 -12 -5 12 -8 7 -11 -23 -11 -21 0
-36 4 -33 9 4 5 0 12 -6 14 -7 3 -2 6 12 8 14 1 32 3 40 4 8 1 20 -2 26 -7 7
-5 17 -2 24 7 11 13 10 14 -4 9 -20 -8 -20 0 0 31 21 32 23 31 21 -7z m2403
28 c0 -3 -4 -8 -10 -11 -5 -3 -10 -1 -10 4 0 6 5 11 10 11 6 0 10 -2 10 -4z
m-2989 -33 c13 -17 13 -17 -6 -3 -11 8 -22 16 -24 17 -2 2 0 3 6 3 6 0 17 -8
24 -17z m1548 13 c-2 -2 -31 -6 -64 -10 -40 -4 -53 -3 -40 3 19 9 113 15 104
7z m417 -43 c35 -26 64 -49 64 -53 0 -3 -28 -33 -62 -67 -44 -43 -78 -67 -112
-78 -47 -16 -49 -16 -71 5 -32 30 -36 66 -14 126 20 54 49 87 89 103 37 15 37
15 106 -36z m-1646 20 c0 -5 -12 -9 -27 -10 -19 -1 -22 1 -12 8 17 11 39 12
39 2z m2103 0 c-7 -2 -21 -2 -30 0 -10 3 -4 5 12 5 17 0 24 -2 18 -5z m-2445
-15 c21 -21 14 -66 -12 -83 -47 -31 -93 22 -62 70 18 27 54 33 74 13z m-588
-15 c0 -5 -5 -15 -10 -23 -8 -12 -10 -11 -10 8 0 12 5 22 10 22 6 0 10 -3 10
-7z m224 -8 c-4 -8 -13 -15 -21 -15 -13 0 -13 3 -3 15 7 8 16 15 21 15 5 0 6
-7 3 -15z m1925 -17 c-30 -44 -29 -43 -29 -31 0 11 38 63 46 63 3 0 -5 -15
-17 -32z m-2179 -9 c0 -6 -4 -7 -10 -4 -5 3 -10 11 -10 16 0 6 5 7 10 4 6 -3
10 -11 10 -16z m811 -2 c-13 -13 -26 -3 -16 12 3 6 11 8 17 5 6 -4 6 -10 -1
-17z m-71 -12 c0 -8 -4 -15 -10 -15 -5 0 -10 7 -10 15 0 8 5 15 10 15 6 0 10
-7 10 -15z m2991 1 c41 -17 84 -61 99 -101 6 -16 14 -68 17 -116 5 -74 3 -91
-17 -135 -24 -54 -28 -68 -29 -102 -1 -12 -6 -21 -13 -20 -9 2 -12 -15 -9 -62
3 -66 22 -102 60 -115 17 -5 61 -65 61 -81 -1 -5 -8 4 -16 19 -19 35 -28 30
-15 -7 6 -14 8 -26 6 -26 -7 0 -89 90 -105 116 -8 13 -23 24 -33 24 -10 0 -20
7 -23 15 -4 8 -10 13 -14 10 -17 -10 -21 35 -6 57 22 30 20 48 -2 22 -9 -12
-29 -29 -43 -38 -25 -15 -26 -15 -63 24 -31 32 -34 40 -19 40 11 0 24 -5 31
-12 6 -6 15 -8 19 -4 4 3 -6 19 -22 33 -36 34 -17 42 31 13 45 -26 54 -19 20
15 -14 14 -26 30 -26 35 0 11 37 23 49 15 5 -3 13 0 17 6 3 6 1 15 -5 19 -17
10 -17 90 0 101 11 8 4 18 -29 47 -42 37 -48 55 -41 115 3 22 52 23 102 2 26
-11 38 -12 43 -4 4 7 1 15 -7 20 -36 22 -42 28 -44 46 0 10 -4 24 -9 31 -9 15
-6 15 35 -2z m-3751 -9 c0 -7 -7 -22 -15 -33 -13 -17 -14 -16 -4 14 11 33 19
41 19 19z m670 -27 c-24 -15 -36 -11 -14 4 10 8 21 12 24 10 2 -3 -2 -9 -10
-14z m1060 -10 c-35 -24 -54 -31 -30 -11 14 11 30 21 35 21 6 0 3 -5 -5 -10z
m-1774 -35 c-11 -8 -25 -15 -30 -15 -6 1 0 7 14 15 32 19 40 18 16 0z m164
-16 c0 -11 -4 -18 -10 -14 -5 3 -7 12 -3 20 7 21 13 19 13 -6z m60 12 c0 -5
-7 -11 -14 -14 -10 -4 -13 -1 -9 9 6 15 23 19 23 5z m-320 -41 c13 -8 13 -10
-2 -10 -9 0 -20 5 -23 10 -8 13 5 13 25 0z m0 -40 c8 -5 11 -10 5 -10 -5 0
-17 5 -25 10 -8 5 -10 10 -5 10 6 0 17 -5 25 -10z m10 -40 c8 -5 11 -10 5 -10
-5 0 -17 5 -25 10 -8 5 -10 10 -5 10 6 0 17 -5 25 -10z m1710 -51 c0 -15 -18
-19 -24 -4 -3 8 -12 15 -21 15 -13 0 -13 3 -3 20 l13 21 18 -22 c9 -12 17 -25
17 -30z m2060 -20 c0 -8 -10 -26 -22 -39 -22 -23 -23 -23 -26 -5 -2 11 -10 27
-18 36 -12 14 -11 17 11 29 14 7 25 20 25 29 1 21 29 -28 30 -50z m-3775 41
c3 -5 2 -10 -4 -10 -5 0 -13 5 -16 10 -3 6 -2 10 4 10 5 0 13 -4 16 -10z
m1203 -18 c20 -26 -2 -36 -37 -16 -40 24 -42 49 -3 40 15 -4 33 -14 40 -24z
m756 2 c0 -20 0 -20 48 3 26 13 50 23 54 23 3 0 -11 -20 -31 -44 l-36 -44 21
-52 c14 -36 17 -51 8 -47 -7 3 -32 13 -56 22 l-43 18 -43 -42 c-23 -22 -45
-41 -48 -41 -10 0 22 89 34 96 12 8 -30 54 -51 55 -9 0 5 7 31 15 29 9 54 24
64 40 20 29 49 28 48 -2z m-483 -9 c34 -18 50 -52 42 -86 -13 -55 -70 -65
-112 -20 -33 35 -32 83 2 106 27 19 31 19 68 0z m-950 -56 c6 -13 6 -26 -1
-39 -6 -11 -8 -25 -4 -31 8 -13 -5 -83 -14 -74 -4 3 -5 36 -4 73 3 58 1 70
-17 86 -12 11 -21 23 -21 28 0 13 49 -22 61 -43z m2350 4 c70 -94 80 -113 74
-132 -6 -21 19 -81 35 -81 5 0 14 -8 19 -18 9 -17 6 -18 -49 -9 -33 5 -57 14
-54 18 3 5 -8 9 -24 9 -17 0 -32 6 -35 14 -4 11 1 13 23 11 16 -2 31 -1 34 3
2 4 -7 8 -21 8 -13 1 -26 4 -29 7 -9 9 16 58 27 52 6 -4 8 -14 5 -22 -3 -8 -2
-12 3 -8 5 3 11 -1 14 -7 2 -7 8 -9 13 -5 5 4 2 12 -5 16 -7 5 -10 14 -6 20 5
9 10 9 21 0 8 -6 17 -9 21 -6 9 10 -26 57 -51 68 -20 10 -46 48 -60 92 -10 31
9 18 45 -30z m-2468 8 c3 -13 0 -18 -7 -15 -7 3 -13 11 -13 19 0 22 14 18 20
-4z m-247 -36 c9 -39 0 -30 -15 15 -6 19 -7 30 -2 25 5 -6 13 -23 17 -40z
m1198 -29 c4 -19 15 -45 26 -59 22 -28 25 -48 9 -64 -13 -13 -49 -5 -49 11 0
6 -4 4 -10 -4 -17 -28 -24 19 -11 87 6 35 8 69 4 76 -5 8 -2 8 9 -1 9 -7 19
-28 22 -46z m1430 38 c5 -14 4 -15 -9 -4 -17 14 -19 20 -6 20 5 0 12 -7 15
-16z m-2358 -40 c8 -41 -2 -122 -16 -139 -5 -6 -7 -15 -3 -18 3 -4 1 -7 -5 -7
-7 0 -9 23 -7 68 2 37 4 82 5 100 0 43 17 41 26 -4z m-293 9 c14 -50 15 -69 7
-82 -6 -11 -10 -4 -15 25 -4 21 -9 47 -12 57 -2 9 0 17 6 17 5 0 12 -8 14 -17z
m842 -19 c-9 -15 -13 -24 -7 -20 12 7 27 -10 36 -42 7 -20 5 -21 -18 -12 -21
8 -28 5 -46 -18 -16 -20 -23 -23 -29 -13 -9 14 41 120 62 133 19 12 21 0 2
-28z m-638 -36 c-2 -13 -4 -5 -4 17 -1 22 1 32 4 23 2 -10 2 -28 0 -40z m341
30 c-2 -6 -14 -15 -26 -19 -20 -8 -21 -6 -12 11 11 21 44 28 38 8z m-103 -128
c5 -53 16 -93 38 -135 16 -33 38 -84 48 -113 10 -28 25 -62 33 -74 28 -40 25
-43 -72 -85 -19 -8 -31 -9 -27 -4 3 6 -10 20 -29 32 -20 12 -33 25 -30 30 3 5
1 9 -4 9 -6 0 -20 11 -33 25 -40 41 -70 33 -101 -28 -16 -29 -28 -61 -28 -71
0 -15 -3 -16 -15 -6 -12 10 -13 16 -4 26 9 11 8 14 -1 14 -6 0 -10 6 -7 13 2
6 10 11 16 9 6 -1 11 7 11 19 0 13 -4 18 -12 13 -7 -5 -5 3 5 16 9 14 24 35
33 47 19 27 12 55 -11 47 -8 -4 -21 -1 -29 5 -10 8 -22 7 -50 -4 -20 -8 -36
-11 -36 -6 0 17 25 29 77 39 53 9 73 3 73 -26 0 -7 4 -11 9 -8 5 3 20 -5 35
-19 47 -43 87 -55 131 -39 13 6 14 9 3 16 -10 7 -10 10 4 19 17 9 17 12 2 34
-9 14 -20 23 -24 20 -4 -2 -12 13 -18 33 -7 21 -23 49 -37 62 -27 25 -32 49
-14 67 6 6 12 24 14 39 1 16 6 49 10 74 l8 45 13 -30 c7 -16 16 -64 19 -105z
m2259 59 c-3 -5 -10 -7 -15 -3 -5 3 -7 10 -3 15 3 5 10 7 15 3 5 -3 7 -10 3
-15z m-2545 -10 c7 11 12 7 19 -20 4 -19 6 -43 3 -54 -4 -18 -6 -17 -15 6 -6
15 -15 27 -20 28 -6 0 -11 13 -13 28 -3 22 -1 25 7 13 9 -13 11 -13 19 -1z
m381 -8 c0 -10 -11 -26 -25 -35 -27 -18 -30 -12 -19 32 8 27 44 30 44 3z
m1015 -47 c6 -21 21 -57 32 -79 21 -40 21 -41 2 -75 l-18 -35 27 -22 c41 -35
10 -27 -34 8 -69 54 -70 56 -48 212 7 47 23 44 39 -9z m-711 10 c-1 -5 6 -14
15 -21 24 -18 -1 -16 -27 3 -26 18 -29 33 -4 30 9 -2 17 -7 16 -12z m2246 -14
c0 -5 -9 -10 -21 -10 -11 0 -17 5 -14 10 3 6 13 10 21 10 8 0 14 -4 14 -10z
m-3210 -10 c0 -5 -5 -10 -11 -10 -5 0 -7 5 -4 10 3 6 8 10 11 10 2 0 4 -4 4
-10z m814 -51 l15 -50 -37 -38 c-20 -20 -53 -58 -73 -84 -26 -33 -38 -43 -42
-33 -9 23 5 87 19 93 8 3 14 13 14 23 0 14 7 18 27 17 33 -2 43 26 18 53 -20
22 -11 44 14 37 14 -3 17 1 13 21 -9 45 17 14 32 -39z m-534 31 c9 -17 8 -20
-8 -20 -24 0 -32 8 -25 26 7 20 20 17 33 -6z m127 -32 c-3 -7 -5 -2 -5 12 0
14 2 19 5 13 2 -7 2 -19 0 -25z m1768 -19 l67 -20 -6 -52 c-3 -29 -9 -92 -12
-142 -14 -206 -15 -209 -53 -221 -18 -6 -38 -18 -43 -27 -5 -10 -16 -17 -23
-17 -12 0 -15 14 -15 62 0 53 -7 162 -24 391 -3 43 -1 47 19 47 13 0 53 -9 90
-21z m-289 -115 c19 -156 12 -170 -9 -18 -18 129 -20 150 -11 142 3 -4 12 -59
20 -124z m-1469 94 c-3 -8 -6 -5 -6 6 -1 11 2 17 5 13 3 -3 4 -12 1 -19z m557
7 c11 -8 15 -15 10 -15 -6 0 -19 7 -30 15 -10 8 -14 14 -9 14 6 0 19 -6 29
-14z m876 -25 c0 -34 58 -418 66 -434 3 -6 -3 -1 -12 12 -9 12 -27 22 -40 22
-24 0 -29 9 -39 75 -4 22 -12 58 -20 80 -18 52 -35 139 -35 174 0 18 12 41 33
64 39 44 47 45 47 7z m1313 15 c0 -6 -7 -11 -16 -13 -12 -3 -15 1 -11 13 7 17
25 17 27 0z m-414 -65 c14 -24 42 -61 63 -83 34 -35 38 -37 34 -16 -3 13 -5
24 -6 24 -1 0 -3 19 -5 43 -2 23 1 42 6 42 5 0 9 -11 9 -24 0 -14 4 -27 8 -30
5 -3 9 -22 10 -42 1 -21 7 -42 13 -48 9 -8 10 -5 6 12 -5 23 7 31 17 10 23
-46 45 -73 60 -70 9 2 16 -4 16 -13 0 -8 -6 -15 -14 -15 -15 0 -89 48 -94 61
-2 5 -9 9 -16 9 -21 0 -156 157 -156 182 0 22 27 -1 49 -42z m1100 19 c-18
-11 -39 -11 -39 0 0 11 31 20 44 13 4 -2 2 -8 -5 -13z m-695 -5 c8 -21 8 -24
-3 -24 -5 0 -11 9 -14 20 -6 24 8 27 17 4z m665 -30 c29 -36 27 -50 -13 -90
-35 -35 -73 -50 -43 -16 8 9 22 30 31 46 13 26 13 33 0 58 -18 35 -2 37 25 2z
m-3369 12 c0 -3 -4 -8 -10 -11 -5 -3 -10 -1 -10 4 0 6 5 11 10 11 6 0 10 -2
10 -4z m3310 -11 c18 -9 30 -24 30 -35 0 -25 -32 -58 -64 -66 -26 -6 -81 16
-57 24 10 3 11 6 1 12 -9 6 -3 13 19 24 19 10 31 24 31 36 0 24 3 24 40 5z
m-343 -22 c-9 -9 -20 -14 -24 -10 -3 4 2 14 13 21 25 19 33 10 11 -11z m483
17 c-8 -5 -24 -10 -35 -10 -17 0 -17 2 -5 10 8 5 24 10 35 10 17 0 17 -2 5
-10z m-752 -85 c-2 -43 -7 -75 -13 -75 -10 0 -10 50 1 118 9 56 15 35 12 -43z
m762 62 c0 -2 -8 -11 -18 -20 -15 -14 -19 -15 -19 -2 0 8 4 12 9 9 4 -3 8 0 8
5 0 6 5 11 10 11 6 0 10 -2 10 -3z m-3730 -22 c0 -8 -4 -15 -10 -15 -5 0 -10
7 -10 15 0 8 5 15 10 15 6 0 10 -7 10 -15z m2323 -107 c-1 -68 -3 -126 -3
-130 0 -5 -4 -8 -10 -8 -5 0 -10 14 -10 31 0 16 -5 61 -11 99 -7 38 -8 77 -4
87 5 10 7 24 6 31 -1 6 6 12 16 12 16 0 18 -11 16 -122z m1472 113 c-6 -5 -26
-12 -45 -15 l-35 -6 35 14 c42 17 58 20 45 7z m-732 -48 c-9 -21 -35 -91 -57
-155 -22 -65 -42 -116 -44 -114 -2 2 4 25 12 50 9 26 16 59 16 75 0 31 71 181
86 181 2 0 -3 -17 -13 -37z m151 10 c-10 -40 -14 -41 -14 -5 0 18 5 32 10 32
6 0 8 -11 4 -27z m-2379 -3 c-3 -5 -1 -10 5 -10 7 0 10 -6 7 -13 -3 -7 1 -21
9 -32 8 -10 14 -14 14 -9 0 6 -5 15 -12 22 -9 9 -9 12 -1 12 7 0 15 -5 18 -10
9 -15 -5 -51 -17 -44 -6 4 -6 -1 1 -14 14 -27 14 -43 0 -18 -9 15 -13 16 -20
5 -6 -10 -8 -9 -7 6 0 11 -2 41 -7 68 -5 33 -4 47 4 47 7 0 9 -4 6 -10z m1407
-12 c-7 -7 -12 -8 -12 -2 0 14 12 26 19 19 2 -3 -1 -11 -7 -17z m1439 -17
c-23 -29 -43 -41 -78 -50 -27 -7 -59 -19 -72 -28 -30 -19 -175 -29 -213 -14
-16 6 -28 17 -28 25 0 12 20 13 118 9 l117 -4 85 49 c47 28 89 50 93 51 5 1
-5 -16 -22 -38z m-2786 18 c11 -17 0 -20 -21 -4 -17 13 -17 14 -2 15 9 0 20
-5 23 -11z m470 -29 c-10 -11 -23 -20 -28 -20 -6 0 -2 9 8 20 10 11 23 20 28
20 6 0 2 -9 -8 -20z m2102 14 c-3 -3 -12 -4 -19 -1 -8 3 -5 6 6 6 11 1 17 -2
13 -5z m253 2 c0 -3 -4 -8 -10 -11 -5 -3 -10 -1 -10 4 0 6 5 11 10 11 6 0 10
-2 10 -4z m-3652 -31 c-3 -3 -13 -2 -22 1 -14 5 -15 9 -4 15 13 8 36 -6 26
-16z m2162 -62 c-11 -75 -29 -130 -30 -92 0 15 15 111 26 158 3 13 7 21 10 18
3 -3 0 -41 -6 -84z m1171 69 c-7 -2 -18 1 -23 6 -8 8 -4 9 13 5 13 -4 18 -8
10 -11z m-2504 -14 c-3 -8 -6 -5 -6 6 -1 11 2 17 5 13 3 -3 4 -12 1 -19z m169
-15 c-10 -10 -19 5 -10 18 6 11 8 11 12 0 2 -7 1 -15 -2 -18z m2417 20 c-13
-2 -33 -2 -45 0 -13 2 -3 4 22 4 25 0 35 -2 23 -4z m-305 -46 c-18 -16 -47
-42 -64 -58 -37 -35 -44 -36 -36 -6 15 50 67 96 108 93 l25 -1 -33 -28z
m-1451 -9 c-3 -7 -5 -2 -5 12 0 14 2 19 5 13 2 -7 2 -19 0 -25z m-818 -7 c0
-10 -2 -11 -6 -3 -2 6 -9 10 -14 6 -5 -3 -9 2 -9 10 0 10 6 13 15 10 8 -4 15
-14 14 -23z m181 4 c0 -12 -29 -3 -34 10 -4 13 -2 14 14 5 11 -6 20 -13 20
-15z m2129 2 c-2 -2 -21 -15 -41 -30 -21 -15 -35 -22 -33 -15 5 13 53 45 69
47 5 1 7 0 5 -2z m539 -17 c13 0 14 -2 3 -12 -11 -11 -14 -10 -18 0 -3 6 -9
10 -14 7 -5 -4 -6 2 -2 11 4 11 8 13 11 6 2 -7 11 -12 20 -12z m-3728 -7 c0
-5 -17 -18 -38 -31 l-37 -23 35 31 c37 32 40 34 40 23z m854 -55 c-4 -6 -2 -8
4 -4 13 8 42 -20 42 -40 0 -16 -9 -18 -30 -4 -11 7 -11 10 -2 10 23 0 3 18
-27 25 -22 5 -30 13 -33 36 -3 16 -2 32 1 35 9 9 52 -46 45 -58z m853 30 c-3
-7 -5 -2 -5 12 0 14 2 19 5 13 2 -7 2 -19 0 -25z m-833 16 c9 -3 16 -13 16
-20 0 -12 -4 -12 -20 -4 -11 6 -20 15 -20 20 0 12 3 12 24 4z m2840 -29 c-4
-8 -10 -12 -15 -9 -14 8 -10 24 6 24 9 0 12 -6 9 -15z m-798 -77 c-17 -57 -36
-93 -36 -70 0 7 -4 10 -10 7 -6 -3 -7 1 -3 10 5 13 7 14 14 3 9 -14 10 -10 13
50 1 24 26 65 34 57 2 -2 -3 -27 -12 -57z m-2083 27 c4 -8 2 -17 -3 -20 -6 -4
-10 -4 -10 -1 0 2 -3 11 -6 20 -3 9 -2 16 4 16 5 0 12 -7 15 -15z m1992 -49
c-4 -21 -12 -35 -19 -33 -16 5 -19 42 -6 68 17 31 33 9 25 -35z m-2646 28
c-18 -22 -70 -48 -64 -32 5 13 53 45 69 47 5 1 3 -6 -5 -15z m1095 0 c3 -8 2
-12 -4 -9 -6 3 -10 10 -10 16 0 14 7 11 14 -7z m2440 1 c13 -9 45 -16 70 -17
44 0 46 -1 26 -15 -18 -13 -26 -13 -53 -2 -32 13 -86 49 -73 49 4 0 17 -7 30
-15z m-2729 -5 c3 -5 1 -10 -4 -10 -6 0 -11 5 -11 10 0 6 2 10 4 10 3 0 8 -4
11 -10z m67 -42 c-7 -7 -12 -8 -12 -2 0 14 12 26 19 19 2 -3 -1 -11 -7 -17z
m247 -18 c0 -10 -3 -8 -9 5 -12 27 -12 43 0 25 5 -8 9 -22 9 -30z m1038 -7
c-3 -10 -5 -2 -5 17 0 19 2 27 5 18 2 -10 2 -26 0 -35z m664 -7 c-12 -26 -27
-46 -35 -46 -13 0 -14 4 -4 25 6 14 15 25 20 25 6 0 8 6 5 13 -3 10 24 40 31
33 1 -2 -6 -24 -17 -50z m690 37 c13 -16 12 -17 -3 -4 -17 13 -22 21 -14 21 2
0 10 -8 17 -17z m-2808 -22 c-4 -3 -8 -12 -9 -18 -1 -7 -2 -18 -2 -24 -1 -5
-17 -9 -34 -7 -30 3 -33 6 -30 33 2 16 8 33 14 36 13 8 73 -11 61 -20z m374 7
c-3 -8 -6 -5 -6 6 -1 11 2 17 5 13 3 -3 4 -12 1 -19z m1487 -10 c4 -17 2 -28
-4 -28 -5 0 -10 14 -10 32 0 36 4 35 14 -4z m-1544 12 c0 -5 -5 -10 -11 -10
-5 0 -7 5 -4 10 3 6 8 10 11 10 2 0 4 -4 4 -10z m620 -52 c0 -35 -2 -38 -29
-38 -16 0 -31 -5 -33 -12 -3 -7 -11 -9 -24 -3 -18 8 -18 8 -1 12 14 4 16 8 6
19 -6 7 -9 20 -6 28 3 7 1 18 -5 24 -20 20 1 29 47 18 44 -10 45 -12 45 -48z
m377 10 c-2 -13 -4 -5 -4 17 -1 22 1 32 4 23 2 -10 2 -28 0 -40z m-2173 33 c3
-5 -1 -11 -9 -14 -9 -4 -12 -1 -8 9 6 16 10 17 17 5z m1519 -23 c-8 -46 -13
-48 -13 -5 0 21 4 37 10 37 5 0 7 -14 3 -32z m320 25 c-7 -2 -13 -22 -13 -43
0 -21 6 -41 13 -43 7 -3 5 -6 -5 -6 -15 -1 -18 8 -18 49 0 41 3 50 18 49 10 0
12 -3 5 -6z m1397 -64 c0 -11 -5 -19 -11 -19 -7 0 -9 -10 -7 -24 6 -31 -27
-44 -35 -15 -7 26 -35 24 -57 -3 -15 -19 -20 -20 -34 -9 -10 8 -16 29 -16 51
0 30 6 44 29 63 l30 25 50 -25 c34 -17 51 -32 51 -44z m-2190 -15 c0 -8 -4
-14 -10 -14 -5 0 -9 -16 -8 -35 2 -49 -6 -52 -24 -7 -13 34 -13 44 0 86 l15
47 14 -32 c7 -17 13 -38 13 -45z m311 -37 c-8 -8 -11 5 -11 44 0 72 14 86 18
18 2 -28 -2 -57 -7 -62z m647 75 c4 -44 -15 -41 -20 3 -2 22 0 34 6 32 6 -2
12 -18 14 -35z m-584 4 c-3 -9 -10 -16 -15 -16 -6 0 -5 9 1 21 13 24 24 20 14
-5z m123 2 c-3 -8 -6 -5 -6 6 -1 11 2 17 5 13 3 -3 4 -12 1 -19z m1147 -35
c-9 -52 -14 -54 -14 -5 0 23 5 42 10 42 7 0 8 -14 4 -37z m-1735 -27 c-12 -26
-29 -30 -36 -9 -2 6 2 17 10 24 7 8 12 21 9 29 -4 13 -2 12 12 -1 14 -13 15
-20 5 -43z m261 44 c0 -5 -5 -10 -11 -10 -5 0 -7 5 -4 10 3 6 8 10 11 10 2 0
4 -4 4 -10z m1646 -28 c-17 -16 -18 -16 -5 5 7 12 15 20 18 17 3 -2 -3 -12
-13 -22z m-2033 -19 c-3 -21 -6 -39 -7 -39 -1 -1 -19 1 -41 5 l-40 6 23 23
c19 19 20 22 5 22 -15 0 -16 2 -3 10 8 5 27 10 42 10 25 0 26 -2 21 -37z
m2150 17 c4 -14 0 -20 -11 -21 -12 0 -10 -3 6 -9 14 -6 22 -18 22 -32 -1 -21
-2 -22 -14 -5 -13 17 -14 16 -20 -6 -7 -30 -115 -147 -116 -127 0 9 16 40 35
70 19 30 35 60 35 67 0 7 8 17 18 22 9 6 12 11 5 11 -15 0 -10 29 8 41 21 13
26 11 32 -11z m-1533 -16 c0 -8 -4 -14 -10 -14 -5 0 -10 9 -10 21 0 11 5 17
10 14 6 -3 10 -13 10 -21z m57 -3 c-4 -19 -2 -31 6 -35 7 -2 5 -5 -5 -5 -12
-1 -16 7 -15 34 1 19 5 35 10 35 5 0 7 -13 4 -29z m-111 -66 c4 -14 9 -24 12
-21 2 3 13 1 24 -5 19 -10 19 -12 -9 -40 -15 -15 -32 -29 -37 -29 -5 0 -6 3
-3 7 4 3 2 12 -4 19 -12 15 -21 73 -13 85 10 17 24 9 30 -16z m-570 -21 c12
-48 -2 -150 -25 -183 -42 -58 -67 -23 -31 41 18 32 22 51 18 92 -3 28 -3 57
-1 64 8 21 32 13 39 -14z m185 -34 c1 -5 2 -14 3 -19 0 -5 4 -13 9 -17 8 -8
10 -44 2 -44 -2 0 -16 5 -30 12 -25 11 -31 31 -19 62 7 18 33 22 35 6z m-246
-87 c-9 -15 -13 -19 -9 -8 4 11 10 36 13 55 5 32 6 33 9 8 2 -15 -4 -40 -13
-55z m710 60 c10 -22 6 -63 -7 -83 -6 -10 -8 -1 -5 32 2 26 0 51 -6 57 -8 8
-8 11 0 11 6 0 14 -8 18 -17z m-1205 -18 c0 -8 -4 -15 -9 -15 -13 0 -22 16
-14 24 11 11 23 6 23 -9z m2356 -53 c-24 -46 -36 -47 -13 -1 11 22 22 38 24
35 2 -2 -3 -18 -11 -34z m-2300 -4 c24 -17 44 -33 44 -35 0 -5 -50 25 -81 48
-41 32 -10 21 37 -13z m657 7 c-7 -21 -13 -19 -13 6 0 11 4 18 10 14 5 -3 7
-12 3 -20z m400 -42 c-3 -7 -9 -10 -14 -7 -6 3 -17 0 -26 -8 -15 -12 -15 -11
-3 9 8 12 18 19 23 16 5 -3 6 5 2 18 -7 23 -7 23 8 4 8 -10 13 -25 10 -32z
m-236 -5 c-3 -7 -5 -2 -5 12 0 14 2 19 5 13 2 -7 2 -19 0 -25z m993 -28 c0
-24 -18 2 -25 35 l-6 30 15 -25 c8 -14 15 -32 16 -40z m-1100 -1 c0 -3 -6 -14
-14 -25 -11 -14 -17 -16 -27 -7 -6 6 -17 9 -24 7 -8 -4 -14 7 -17 30 -2 20 1
37 7 39 10 4 75 -34 75 -44z m-574 -21 l29 -33 -32 29 c-31 28 -38 36 -30 36
2 0 16 -15 33 -32z m677 -10 c-3 -18 -10 -37 -15 -43 -8 -9 -5 23 8 63 7 25
13 11 7 -20z m-73 0 c-1 -13 -8 -34 -16 -48 l-15 -25 5 34 c3 18 6 40 6 47 0
8 5 14 10 14 6 0 10 -10 10 -22z m1730 -6 c14 -6 38 -16 54 -22 26 -10 28 -13
15 -26 -13 -13 -21 -12 -62 3 -38 14 -47 22 -47 41 0 13 3 22 8 20 4 -2 18 -9
32 -16z m-1447 -77 l6 -30 -13 29 c-12 27 -14 28 -24 10 -10 -16 -11 -13 -12
22 0 22 3 44 7 47 8 8 27 -33 36 -78z m63 50 c-8 -19 -20 -43 -26 -52 -9 -15
-10 -12 -4 12 4 17 7 38 8 47 0 9 4 14 8 12 4 -3 8 0 8 5 0 6 5 11 10 11 6 0
4 -14 -4 -35z m1164 -17 c-25 -24 -36 -18 -21 11 7 12 17 18 27 14 13 -5 12
-9 -6 -25z m-1923 -30 c-3 -8 -6 -5 -6 6 -1 11 2 17 5 13 3 -3 4 -12 1 -19z"/>
<path d="M1603 3465 c0 -7 6 -11 14 -8 7 3 13 6 13 8 0 2 -6 5 -13 8 -8 3 -14
-1 -14 -8z"/>
<path d="M1441 3414 c0 -11 3 -14 6 -6 3 7 2 16 -1 19 -3 4 -6 -2 -5 -13z"/>
<path d="M3050 3121 c0 -5 12 -17 28 -26 l27 -18 -24 27 c-26 28 -31 31 -31
17z"/>
<path d="M3180 3106 c0 -2 8 -10 18 -17 15 -13 16 -12 3 4 -13 16 -21 21 -21
13z"/>
<path d="M3240 2875 c0 -8 7 -15 15 -15 8 0 15 -4 15 -9 0 -5 7 -11 15 -15 21
-8 19 -1 -9 28 -27 30 -36 32 -36 11z"/>
<path d="M3306 2821 c-3 -5 4 -11 16 -14 30 -8 35 -1 9 12 -11 6 -22 7 -25 2z"/>
<path d="M2201 1964 c-17 -12 -20 -19 -10 -25 8 -4 17 -1 24 8 8 11 23 14 48
11 23 -2 36 0 34 6 -6 18 -70 18 -96 0z"/>
<path d="M2220 1930 c0 -5 16 -10 36 -10 21 0 33 4 29 10 -3 6 -19 10 -36 10
-16 0 -29 -4 -29 -10z"/>
<path d="M4058 1503 c10 -43 12 -69 5 -100 -10 -43 -8 -57 8 -47 13 7 11 161
-1 185 -21 37 -27 18 -12 -38z"/>
<path d="M3975 1392 c-9 -9 -5 -33 5 -27 5 3 15 -3 22 -15 18 -28 29 -25 26 9
-2 22 -8 31 -25 34 -12 2 -25 2 -28 -1z"/>
<path d="M4055 1319 c-4 -6 -5 -12 -2 -15 2 -3 7 2 10 11 7 17 1 20 -8 4z"/>
<path d="M510 839 c0 -5 5 -7 10 -4 6 3 10 8 10 11 0 2 -4 4 -10 4 -5 0 -10
-5 -10 -11z"/>
<path d="M748 813 c7 -3 16 -2 19 1 4 3 -2 6 -13 5 -11 0 -14 -3 -6 -6z"/>
<path d="M685 800 c-13 -5 -14 -9 -5 -9 8 0 24 4 35 9 13 5 14 9 5 9 -8 0 -24
-4 -35 -9z"/>
<path d="M3347 33 c-13 -12 -7 -33 8 -33 8 0 15 9 15 20 0 20 -11 26 -23 13z"/>
</g>
</svg>
